<?xml version="1.0" encoding="iso-8859-1"?>
<!-- Generator: Adobe Illustrator 17.1.0, SVG Export Plug-In . SVG Version: 6.00 Build 0)  -->
<!DOCTYPE svg PUBLIC "-//W3C//DTD SVG 1.1//EN" "http://www.w3.org/Graphics/SVG/1.1/DTD/svg11.dtd">
<svg version="1.1" id="Capa_1" xmlns="http://www.w3.org/2000/svg" xmlns:xlink="http://www.w3.org/1999/xlink" x="0px" y="0px"
	 viewBox="0 0 200.678 200.678" style="enable-background:new 0 0 200.678 200.678;" xml:space="preserve">
<path d="M150.371,200.678c-1.104,0-2-0.896-2-2V72.735l-8.032-4.414v130.356c0,1.104-0.896,2-2,2s-2-0.896-2-2V66.122l-36-19.786
	L64.338,66.124v132.554c0,1.104-0.896,2-2,2s-2-0.896-2-2V68.322l-8.032,4.415v125.94c0,1.104-0.896,2-2,2s-2-0.896-2-2V71.31
	c0-0.088,0.006-0.174,0.017-0.259L42.748,60.91c-0.532-0.968-0.178-2.184,0.79-2.716l4.768-2.62V17.736l-4.768-2.62
	c-0.465-0.256-0.809-0.686-0.957-1.194c-0.148-0.51-0.088-1.058,0.167-1.522l6.247-11.363c0.532-0.967,1.748-1.319,2.716-0.789
	l48.628,26.728l48.628-26.728c0.969-0.53,2.185-0.179,2.716,0.79l6.246,11.363c0.532,0.968,0.178,2.184-0.79,2.716l-4.768,2.62
	v37.838l4.768,2.62c0.968,0.532,1.321,1.748,0.79,2.716l-5.574,10.142c0.011,0.085,0.017,0.171,0.017,0.259v127.367
	C152.371,199.782,151.476,200.678,150.371,200.678z M47.217,60.736l4.32,7.859l44.65-24.542l-9.308-5.116L47.217,60.736z
	 M47.218,12.574l101.923,56.021l4.319-7.858L51.537,4.716L47.218,12.574z M52.306,19.935v33.439l30.42-16.72L52.306,19.935z
	 M117.951,36.655l30.42,16.72V19.935L117.951,36.655z M104.491,29.257l9.308,5.116l39.661-21.799l-4.319-7.858L104.491,29.257z"/>
<g>
</g>
<g>
</g>
<g>
</g>
<g>
</g>
<g>
</g>
<g>
</g>
<g>
</g>
<g>
</g>
<g>
</g>
<g>
</g>
<g>
</g>
<g>
</g>
<g>
</g>
<g>
</g>
<g>
</g>
</svg>
